PathFileType	4	(X/Y/Z)	./resultDataOpenSim/trcMotMarkerGrf/sub06/qtm-04-08.trc
DataRate	CameraRate	NumFrames	NumMarkers	Units	OrigDataRate	OrigDataStartFrame	OrigNumFrames
250.000000	250.000000	14	24	m	250.000000	332	531
Frame#	Time	L.Toe.Tip			R.Toe.Tip			L.Ankle.Lat			R.Ankle.Lat			L.Ankle.Med			R.Ankle.Med			L.Heel			R.Heel			L.Knee.Lat			R.Knee.Lat			L.Knee.Med			R.Knee.Med			L.Thigh.Upper			R.Thigh.Upper			L.ASIS			R.ASIS			V.Sacral			L.Acromium			R.Acromium			C7			L.Elbow			R.Elbow			L.Wrist.Lat			R.Wrist.Lat
		X1	Y1	Z1	X2	Y2	Z2	X3	Y3	Z3	X4	Y4	Z4	X5	Y5	Z5	X6	Y6	Z6	X7	Y7	Z7	X8	Y8	Z8	X9	Y9	Z9	X10	Y10	Z10	X11	Y11	Z11	X12	Y12	Z12	X13	Y13	Z13	X14	Y14	Z14	X15	Y15	Z15	X16	Y16	Z16	X17	Y17	Z17	X18	Y18	Z18	X19	Y19	Z19	X20	Y20	Z20	X21	Y21	Z21	X22	Y22	Z22	X23	Y23	Z23	X24	Y24	Z24

332	1.324	0.25646982	0.05872221	-0.025906465	0.89640323	0.035791086	0.10094068	0.26989517	0.18470528	-0.06715685	0.75972944	0.059125545	0.12715974	0.29283287	0.19435663	0.013411305	0.77871792	0.081722142	0.040380651	0.22978743	0.24815831	-0.020544767	0.70427053	0.037726377	0.068403024	0.60877628	0.35367288	-0.11039321	0.81970806	0.43994713	0.16763445	0.60992461	0.3433806	0.01154101	0.78041461	0.42809754	0.046377778	0.59437711	0.74638046	-0.10239355	0.65354905	0.77744128	0.23630956	0.67770569	0.7977549	-0.072078934	0.72418816	0.82466975	0.16342196	0.51589586	0.88892644	0.077325585	0.66465677	1.2941143	-0.11926492	0.65104112	1.2709342	0.24254596	0.58218043	1.3246363	0.059840601	0.65698711	0.96858367	-0.17617434	0.52823016	0.98367823	0.31189521	0.84493838	0.81019085	-0.15777032	0.63498903	0.77759071	0.38891058
333	1.328	0.26705132	0.064457079	-0.027449722	0.8962555	0.035810019	0.10111982	0.28071672	0.19056635	-0.068345648	0.75957346	0.05905973	0.12726024	0.30373755	0.1998117	0.012293953	0.77867208	0.081824002	0.04053534	0.24066933	0.2539061	-0.021387431	0.70418042	0.037734931	0.068405107	0.62063923	0.35618514	-0.11171857	0.82136808	0.43992214	0.16827311	0.62175536	0.34573255	0.010354074	0.78240836	0.42858169	0.046790828	0.60029636	0.74862472	-0.10194761	0.65816697	0.77899144	0.23663243	0.68326843	0.7999799	-0.071992457	0.72929341	0.82633814	0.16418731	0.52154835	0.89098857	0.077513871	0.66952719	1.2963572	-0.11933172	0.65658625	1.2731509	0.24255704	0.58755381	1.3267384	0.05996459	0.66094863	0.97107591	-0.17545541	0.53545181	0.98514767	0.31294721	0.84672994	0.81021252	-0.15933068	0.64538953	0.78030895	0.38907996
334	1.332	0.27788115	0.070015396	-0.029032919	0.89612283	0.035828269	0.10129465	0.29165239	0.1962747	-0.069485874	0.75944134	0.059002807	0.12733947	0.3148172	0.20511621	0.01118528	0.77862165	0.081932987	0.040692598	0.25163254	0.25942203	-0.022291111	0.7041019	0.037746883	0.068414999	0.6324549	0.35883648	-0.11297551	0.82283142	0.43987946	0.16875023	0.6341206	0.34807879	0.0090188124	0.78431683	0.4291376	0.047174596	0.60622012	0.7509276	-0.10156617	0.6626896	0.78050972	0.2369206	0.68872819	0.80217231	-0.071972197	0.73438557	0.82803419	0.16499797	0.52731843	0.89301642	0.077714175	0.67438662	1.298625	-0.1193908	0.66210781	1.2754082	0.24255503	0.59286943	1.3288827	0.060099912	0.66482617	0.97360133	-0.17477157	0.54264134	0.98667715	0.31396634	0.84844635	0.81034719	-0.16089223	0.65577847	0.78311884	0.38919269
335	1.336	0.28893499	0.075373112	-0.030675631	0.89601116	0.035845817	0.1014625	0.30269445	0.20183333	-0.070595251	0.7593583	0.058950762	0.12738641	0.32598672	0.21025318	0.010103083	0.77857797	0.082050486	0.040852199	0.26270273	0.26471135	-0.023257965	0.70403785	0.037763538	0.068431592	0.64424336	0.36160825	-0.11418596	0.82408042	0.43976992	0.16906263	0.6469328	0.35040592	0.0075738794	0.78618386	0.42972638	0.047507434	0.61220641	0.75329436	-0.10136995	0.66711767	0.78199152	0.2371687	0.69421588	0.80437805	-0.07202176	0.739459	0.82975924	0.16583823	0.53318492	0.89501678	0.077936736	0.67924335	1.300917	-0.11943868	0.66761199	1.2777003	0.24254552	0.59813517	1.3310645	0.060248133	0.66862355	0.97615488	-0.17412883	0.54980424	0.98826893	0.3149549	0.85008839	0.81057835	-0.16244959	0.66609086	0.78599604	0.38922227
336	1.34	0.30017595	0.080505345	-0.032364499	0.89591921	0.035863438	0.10162212	0.313852	0.20722092	-0.071690818	0.75932398	0.058904997	0.12740421	0.33718353	0.21520507	0.009064362	0.77855028	0.082175794	0.041011255	0.27385242	0.26980067	-0.024228977	0.70398726	0.03778531	0.068451913	0.65599903	0.36446923	-0.1153458	0.8251448	0.43958698	0.16929288	0.65972496	0.35274099	0.0061972973	0.78808988	0.43030878	0.047743274	0.61828086	0.75572626	-0.10139984	0.67144884	0.78343006	0.23737019	0.69992882	0.80665809	-0.072066277	0.7445011	0.83151656	0.16669089	0.53907151	0.8970027	0.078150257	0.68410315	1.3032276	-0.11947128	0.6731054	1.2800233	0.24253168	0.60337433	1.3332573	0.060396939	0.67234471	0.97873135	-0.17353287	0.55695425	0.98992631	0.31591682	0.85166563	0.81089735	-0.16400659	0.67633283	0.78894485	0.38917571
337	1.344	0.31157262	0.085403769	-0.034054182	0.89583938	0.035882148	0.10177101	0.32513287	0.21238822	-0.072780289	0.75929838	0.058874787	0.12741544	0.34840134	0.21995761	0.0080726984	0.77853843	0.082305989	0.041163328	0.28503869	0.27468659	-0.025110305	0.70394456	0.037811108	0.068472527	0.66769782	0.36739786	-0.11642756	0.82613227	0.43938635	0.16954568	0.67210743	0.35513409	0.0050410948	0.79005223	0.4308612	0.047866149	0.62441594	0.75822247	-0.10155793	0.67567894	0.78481457	0.23751899	0.70599381	0.80904777	-0.07200027	0.74951517	0.83331154	0.16754768	0.54490187	0.89898288	0.078319852	0.68897191	1.3055475	-0.11948696	0.67859269	1.2823741	0.24251083	0.60860986	1.3354353	0.060532323	0.67599388	0.98132528	-0.17298883	0.564112	0.9916502	0.3168599	0.85318667	0.81130119	-0.16556838	0.68655533	0.79198897	0.38908382
338	1.348	0.32310257	0.090072905	-0.035686353	0.89576181	0.035902008	0.10190546	0.33652831	0.21729537	-0.073862449	0.75924244	0.058862975	0.1274418	0.35967543	0.22449868	0.0071159436	0.77853165	0.082437164	0.041301329	0.29624972	0.27932565	-0.025856661	0.70390275	0.037838816	0.068490653	0.67934447	0.37039707	-0.1174202	0.82717314	0.43923906	0.16985807	0.68409735	0.35761971	0.0041192112	0.79192149	0.43137344	0.047948166	0.63054626	0.76078529	-0.10165392	0.67981102	0.78613223	0.23761489	0.71231286	0.81152804	-0.071781573	0.75451306	0.83514626	0.16840409	0.55063827	0.90095995	0.078448446	0.69385737	1.3078689	-0.11949002	0.68407505	1.2847481	0.24247785	0.61384868	1.3375891	0.060653127	0.67957552	0.98393128	-0.17250173	0.57129743	0.99343645	0.31779497	0.85464897	0.81178742	-0.16713352	0.69679294	0.79514244	0.38896836
339	1.352	0.33475405	0.094511965	-0.037245887	0.89567936	0.035921922	0.10202293	0.34801699	0.22193546	-0.074926522	0.75915298	0.058859188	0.12748629	0.37108825	0.2288079	0.0061502962	0.77851473	0.082565869	0.04142179	0.30750654	0.28368775	-0.026523618	0.70385832	0.037865511	0.068502526	0.69096519	0.37347899	-0.11833185	0.82830806	0.43918217	0.17017808	0.69593692	0.36021414	0.0033654222	0.79348561	0.43182771	0.048096763	0.6366059	0.76340912	-0.10151779	0.68387471	0.78738072	0.23767152	0.7186234	0.81404483	-0.071461969	0.7595061	0.8370192	0.16925446	0.55627426	0.90293606	0.078556764	0.69876916	1.3101876	-0.11949214	0.68955261	1.28714	0.24243202	0.61908599	1.3397247	0.060768102	0.68309368	0.98654512	-0.17207838	0.57850595	0.99527255	0.31872515	0.85604576	0.81235158	-0.16869459	0.70704183	0.798397	0.3888291
340	1.356	0.34652917	0.098707431	-0.038787379	0.89558918	0.035940994	0.10212267	0.35958116	0.22631886	-0.075959988	0.75904845	0.058852573	0.12753901	0.3827457	0.23285826	0.0051128833	0.77847576	0.082689016	0.041526031	0.31884227	0.28778569	-0.027227494	0.70381246	0.037886852	0.06850177	0.70256029	0.37664721	-0.11915807	0.82946743	0.43921643	0.17042381	0.70780904	0.36292909	0.0027166801	0.79468895	0.43220846	0.048325655	0.64258506	0.76605896	-0.10116283	0.68794073	0.78858638	0.23771697	0.72474734	0.81655572	-0.071120874	0.76450312	0.83892718	0.17009155	0.56181615	0.90491268	0.078654144	0.703714	1.3125026	-0.11950792	0.69503	1.2895462	0.24237906	0.62431559	1.3418495	0.06088104	0.68655036	0.98916545	-0.17173089	0.58569434	0.99713712	0.31963955	0.85737884	0.8129859	-0.17024343	0.71727888	0.80173393	0.38865629
341	1.36	0.35843462	0.1026438	-0.040381526	0.89548892	0.035959839	0.10220423	0.37121623	0.23045174	-0.07696052	0.75894185	0.058843676	0.12758975	0.39464213	0.2366374	0.0040024663	0.7784098	0.082802891	0.041617332	0.3302739	0.291638	-0.028032566	0.70376666	0.037897672	0.068483021	0.71410904	0.37989989	-0.11988483	0.83055123	0.43931739	0.17055514	0.71975051	0.3657728	0.0021387434	0.79567388	0.43253247	0.048517787	0.64856932	0.76867951	-0.10083895	0.69210539	0.78980002	0.23777903	0.73070964	0.81905627	-0.070797467	0.76950753	0.84086558	0.17090651	0.56727751	0.90688611	0.078742986	0.70868589	1.3148103	-0.11953894	0.70051541	1.2919643	0.24232672	0.62953283	1.3439629	0.060989975	0.68994367	0.99179373	-0.1714783	0.59280179	0.99900817	0.32052313	0.85866162	0.81368152	-0.1717715	0.72748576	0.80514011	0.38844367
342	1.364	0.37047608	0.10631438	-0.042057935	0.89537502	0.03597999	0.10226725	0.38292364	0.23433434	-0.077934758	0.75882832	0.058842439	0.12763534	0.40659506	0.24015812	0.002918226	0.77831709	0.082903577	0.041696904	0.34177991	0.29522557	-0.028870839	0.7037165	0.037894784	0.068451637	0.72560226	0.38323615	-0.12051363	0.83151164	0.43944694	0.17058351	0.73169631	0.36874515	0.0016235812	0.796621	0.43283112	0.048537168	0.65468911	0.77124188	-0.10083231	0.69645823	0.79106557	0.23787195	0.73661951	0.82156442	-0.070489762	0.77451688	0.84282694	0.17168911	0.57267864	0.90884802	0.078820734	0.71366629	1.3171008	-0.11956237	0.70601111	1.2943896	0.24227791	0.63473623	1.3460599	0.061094987	0.69326902	0.99443009	-0.17133768	0.59978895	1.0008737	0.3213693	0.85991039	0.81443222	-0.17327042	0.73765666	0.80861155	0.38818904
343	1.368	0.3826639	0.10971817	-0.04380679	0.89524714	0.036002077	0.1023127	0.39469696	0.23796748	-0.078888989	0.7586832	0.058861111	0.12768284	0.4184334	0.24343702	0.0019538104	0.77820025	0.08298884	0.041762404	0.3533151	0.29850757	-0.029611728	0.70365029	0.037879336	0.068430729	0.73704122	0.38665323	-0.1210602	0.83237219	0.43957461	0.17052798	0.74356664	0.37183654	0.0011767455	0.79760114	0.43310903	0.048351765	0.66100029	0.77376766	-0.10122534	0.70105238	0.79240222	0.23800279	0.7425375	0.8240895	-0.070184343	0.77952826	0.84479988	0.1724296	0.57804154	0.91078999	0.078875464	0.7186426	1.3193599	-0.11955213	0.71150962	1.2968147	0.2422288	0.63992824	1.348138	0.061197117	0.69652516	0.99706798	-0.17130357	0.60667301	1.0027341	0.32218271	0.86113319	0.81523262	-0.17473827	0.74779206	0.81214541	0.38789059
344	1.372	0.39501329	0.11285453	-0.045607935	0.89511199	0.036024957	0.10234242	0.40652375	0.2413499	-0.079823878	0.75847911	0.05890999	0.12774403	0.43017503	0.24647465	0.001097045	0.77806508	0.083058448	0.041809403	0.3648444	0.30146313	-0.03019908	0.70355598	0.03785757	0.06845136	0.74842917	0.39014066	-0.12153345	0.83317547	0.43969076	0.17038562	0.75533099	0.37503265	0.00080556523	0.79858219	0.4333427	0.048036223	0.66741762	0.77629587	-0.10186654	0.70583783	0.79381311	0.2381779	0.74846246	0.82662416	-0.069875053	0.78454459	0.84677296	0.17312372	0.58338257	0.91270453	0.078895935	0.72361925	1.3215779	-0.11950831	0.7170028	1.2992321	0.24217474	0.64511176	1.3501937	0.061296762	0.69971964	0.99969529	-0.17134313	0.61353125	1.0045972	0.32297533	0.86232992	0.81607418	-0.17617987	0.75789258	0.81573377	0.38754917
345	1.376	0.40753871	0.11572452	-0.047447218	0.89498026	0.036046785	0.10235753	0.41840203	0.24447308	-0.080735044	0.75822652	0.058992043	0.12781759	0.44193569	0.24926358	0.0002805258	0.77792328	0.083111104	0.04183115	0.37635427	0.30409692	-0.030672308	0.70343166	0.037841284	0.068528112	0.75977916	0.39367911	-0.12192443	0.83393313	0.43980151	0.17013986	0.7669939	0.37832135	0.00052222435	0.79953931	0.43350727	0.047687189	0.673773	0.77884279	-0.10252689	0.71057965	0.79530199	0.23840506	0.75437771	0.8291611	-0.069562642	0.78957466	0.84873855	0.17377521	0.58871323	0.91458652	0.078884275	0.72860367	1.3237532	-0.11944974	0.72249044	1.3016381	0.24211661	0.65028892	1.3522205	0.061395564	0.70286793	1.0023015	-0.17142294	0.62044245	1.0064699	0.32375875	0.86350244	0.81694833	-0.1775988	0.76795807	0.81936566	0.38717139
